<mxfile host="app.diagrams.net" modified="2024-05-18T10:53:38.526Z" agent="Mozilla/5.0 (Windows NT 10.0; Win64; x64) AppleWebKit/537.36 (KHTML, like Gecko) Chrome/124.0.0.0 Safari/537.36" etag="xupWNa4lfI8kbzdIX1_g" version="24.4.4" type="github">
  <diagram id="C5RBs43oDa-KdzZeNtuy" name="Page-1">
    <mxGraphModel dx="1311" dy="869" grid="1" gridSize="10" guides="1" tooltips="1" connect="1" arrows="1" fold="1" page="1" pageScale="1" pageWidth="827" pageHeight="1169" math="0" shadow="0">
      <root>
        <mxCell id="WIyWlLk6GJQsqaUBKTNV-0" />
        <mxCell id="WIyWlLk6GJQsqaUBKTNV-1" parent="WIyWlLk6GJQsqaUBKTNV-0" />
        <mxCell id="fqKJSRwc9zWeb93R4SYT-26" style="edgeStyle=orthogonalEdgeStyle;rounded=0;orthogonalLoop=1;jettySize=auto;html=1;entryX=0.5;entryY=0;entryDx=0;entryDy=0;" edge="1" parent="WIyWlLk6GJQsqaUBKTNV-1" source="fqKJSRwc9zWeb93R4SYT-6" target="fqKJSRwc9zWeb93R4SYT-25">
          <mxGeometry relative="1" as="geometry" />
        </mxCell>
        <mxCell id="fqKJSRwc9zWeb93R4SYT-6" value="Deteksi Cahaya&lt;div&gt;dan&lt;/div&gt;&lt;div&gt;Suhu&lt;/div&gt;" style="shape=parallelogram;html=1;strokeWidth=2;perimeter=parallelogramPerimeter;whiteSpace=wrap;rounded=1;arcSize=12;size=0.23;" vertex="1" parent="WIyWlLk6GJQsqaUBKTNV-1">
          <mxGeometry x="414" y="350" width="140" height="80" as="geometry" />
        </mxCell>
        <mxCell id="fqKJSRwc9zWeb93R4SYT-16" style="edgeStyle=orthogonalEdgeStyle;rounded=0;orthogonalLoop=1;jettySize=auto;html=1;exitX=0;exitY=0.5;exitDx=0;exitDy=0;exitPerimeter=0;entryX=1;entryY=0.5;entryDx=0;entryDy=0;" edge="1" parent="WIyWlLk6GJQsqaUBKTNV-1" source="fqKJSRwc9zWeb93R4SYT-7" target="fqKJSRwc9zWeb93R4SYT-11">
          <mxGeometry relative="1" as="geometry" />
        </mxCell>
        <mxCell id="fqKJSRwc9zWeb93R4SYT-20" value="Yes" style="edgeLabel;html=1;align=center;verticalAlign=middle;resizable=0;points=[];" vertex="1" connectable="0" parent="fqKJSRwc9zWeb93R4SYT-16">
          <mxGeometry x="-0.35" relative="1" as="geometry">
            <mxPoint x="1" as="offset" />
          </mxGeometry>
        </mxCell>
        <mxCell id="fqKJSRwc9zWeb93R4SYT-17" style="edgeStyle=orthogonalEdgeStyle;rounded=0;orthogonalLoop=1;jettySize=auto;html=1;exitX=0.5;exitY=1;exitDx=0;exitDy=0;exitPerimeter=0;entryX=0.5;entryY=0;entryDx=0;entryDy=0;" edge="1" parent="WIyWlLk6GJQsqaUBKTNV-1" source="fqKJSRwc9zWeb93R4SYT-7" target="fqKJSRwc9zWeb93R4SYT-12">
          <mxGeometry relative="1" as="geometry" />
        </mxCell>
        <mxCell id="fqKJSRwc9zWeb93R4SYT-21" value="No" style="edgeLabel;html=1;align=center;verticalAlign=middle;resizable=0;points=[];" vertex="1" connectable="0" parent="fqKJSRwc9zWeb93R4SYT-17">
          <mxGeometry x="-0.275" y="-2" relative="1" as="geometry">
            <mxPoint as="offset" />
          </mxGeometry>
        </mxCell>
        <mxCell id="fqKJSRwc9zWeb93R4SYT-7" value="Cahaya&lt;div&gt;lebih dari&lt;/div&gt;&lt;div&gt;500 lux?&lt;/div&gt;" style="strokeWidth=2;html=1;shape=mxgraph.flowchart.decision;whiteSpace=wrap;" vertex="1" parent="WIyWlLk6GJQsqaUBKTNV-1">
          <mxGeometry x="230" y="340" width="100" height="100" as="geometry" />
        </mxCell>
        <mxCell id="fqKJSRwc9zWeb93R4SYT-18" style="edgeStyle=orthogonalEdgeStyle;rounded=0;orthogonalLoop=1;jettySize=auto;html=1;exitX=0.5;exitY=1;exitDx=0;exitDy=0;exitPerimeter=0;entryX=0.5;entryY=0;entryDx=0;entryDy=0;" edge="1" parent="WIyWlLk6GJQsqaUBKTNV-1" source="fqKJSRwc9zWeb93R4SYT-8" target="fqKJSRwc9zWeb93R4SYT-13">
          <mxGeometry relative="1" as="geometry" />
        </mxCell>
        <mxCell id="fqKJSRwc9zWeb93R4SYT-22" value="Yes" style="edgeLabel;html=1;align=center;verticalAlign=middle;resizable=0;points=[];" vertex="1" connectable="0" parent="fqKJSRwc9zWeb93R4SYT-18">
          <mxGeometry x="-0.1667" relative="1" as="geometry">
            <mxPoint as="offset" />
          </mxGeometry>
        </mxCell>
        <mxCell id="fqKJSRwc9zWeb93R4SYT-19" style="edgeStyle=orthogonalEdgeStyle;rounded=0;orthogonalLoop=1;jettySize=auto;html=1;exitX=1;exitY=0.5;exitDx=0;exitDy=0;exitPerimeter=0;entryX=0;entryY=0.5;entryDx=0;entryDy=0;" edge="1" parent="WIyWlLk6GJQsqaUBKTNV-1" source="fqKJSRwc9zWeb93R4SYT-8" target="fqKJSRwc9zWeb93R4SYT-14">
          <mxGeometry relative="1" as="geometry" />
        </mxCell>
        <mxCell id="fqKJSRwc9zWeb93R4SYT-23" value="No" style="edgeLabel;html=1;align=center;verticalAlign=middle;resizable=0;points=[];" vertex="1" connectable="0" parent="fqKJSRwc9zWeb93R4SYT-19">
          <mxGeometry x="-0.1167" y="-2" relative="1" as="geometry">
            <mxPoint x="1" as="offset" />
          </mxGeometry>
        </mxCell>
        <mxCell id="fqKJSRwc9zWeb93R4SYT-8" value="Suhu&lt;div&gt;lebih dari&lt;/div&gt;&lt;div&gt;30 derajat&lt;/div&gt;&lt;div&gt;celcius?&lt;/div&gt;" style="strokeWidth=2;html=1;shape=mxgraph.flowchart.decision;whiteSpace=wrap;" vertex="1" parent="WIyWlLk6GJQsqaUBKTNV-1">
          <mxGeometry x="674" y="340" width="100" height="100" as="geometry" />
        </mxCell>
        <mxCell id="fqKJSRwc9zWeb93R4SYT-9" style="edgeStyle=orthogonalEdgeStyle;rounded=0;orthogonalLoop=1;jettySize=auto;html=1;entryX=0;entryY=0.5;entryDx=0;entryDy=0;entryPerimeter=0;" edge="1" parent="WIyWlLk6GJQsqaUBKTNV-1" source="fqKJSRwc9zWeb93R4SYT-6" target="fqKJSRwc9zWeb93R4SYT-8">
          <mxGeometry relative="1" as="geometry" />
        </mxCell>
        <mxCell id="fqKJSRwc9zWeb93R4SYT-28" style="edgeStyle=orthogonalEdgeStyle;rounded=0;orthogonalLoop=1;jettySize=auto;html=1;entryX=0;entryY=0.5;entryDx=0;entryDy=0;entryPerimeter=0;" edge="1" parent="WIyWlLk6GJQsqaUBKTNV-1" source="fqKJSRwc9zWeb93R4SYT-11" target="fqKJSRwc9zWeb93R4SYT-27">
          <mxGeometry relative="1" as="geometry">
            <mxPoint x="120" y="720" as="targetPoint" />
            <Array as="points">
              <mxPoint x="120" y="720" />
            </Array>
          </mxGeometry>
        </mxCell>
        <mxCell id="fqKJSRwc9zWeb93R4SYT-11" value="Lampu merah menyala" style="rounded=1;whiteSpace=wrap;html=1;absoluteArcSize=1;arcSize=14;strokeWidth=2;" vertex="1" parent="WIyWlLk6GJQsqaUBKTNV-1">
          <mxGeometry x="70" y="360" width="100" height="60" as="geometry" />
        </mxCell>
        <mxCell id="fqKJSRwc9zWeb93R4SYT-12" value="Lampu merah mati" style="rounded=1;whiteSpace=wrap;html=1;absoluteArcSize=1;arcSize=14;strokeWidth=2;" vertex="1" parent="WIyWlLk6GJQsqaUBKTNV-1">
          <mxGeometry x="230" y="520" width="100" height="60" as="geometry" />
        </mxCell>
        <mxCell id="fqKJSRwc9zWeb93R4SYT-13" value="Lampu biru Menyala, Buzzer bersuara tinggi" style="rounded=1;whiteSpace=wrap;html=1;absoluteArcSize=1;arcSize=14;strokeWidth=2;" vertex="1" parent="WIyWlLk6GJQsqaUBKTNV-1">
          <mxGeometry x="674" y="500" width="100" height="60" as="geometry" />
        </mxCell>
        <mxCell id="fqKJSRwc9zWeb93R4SYT-14" value="Lampu biru mati, Buzzer bersuara menurun" style="rounded=1;whiteSpace=wrap;html=1;absoluteArcSize=1;arcSize=14;strokeWidth=2;" vertex="1" parent="WIyWlLk6GJQsqaUBKTNV-1">
          <mxGeometry x="834" y="360" width="100" height="60" as="geometry" />
        </mxCell>
        <mxCell id="fqKJSRwc9zWeb93R4SYT-24" style="edgeStyle=orthogonalEdgeStyle;rounded=0;orthogonalLoop=1;jettySize=auto;html=1;exitX=0;exitY=0.5;exitDx=0;exitDy=0;entryX=1;entryY=0.5;entryDx=0;entryDy=0;entryPerimeter=0;" edge="1" parent="WIyWlLk6GJQsqaUBKTNV-1" source="fqKJSRwc9zWeb93R4SYT-6" target="fqKJSRwc9zWeb93R4SYT-7">
          <mxGeometry relative="1" as="geometry" />
        </mxCell>
        <mxCell id="fqKJSRwc9zWeb93R4SYT-25" value="Menampilkan suhu dan intensitas cahaya" style="rounded=1;whiteSpace=wrap;html=1;absoluteArcSize=1;arcSize=14;strokeWidth=2;" vertex="1" parent="WIyWlLk6GJQsqaUBKTNV-1">
          <mxGeometry x="434" y="525" width="100" height="60" as="geometry" />
        </mxCell>
        <mxCell id="fqKJSRwc9zWeb93R4SYT-27" value="Selesai" style="strokeWidth=2;html=1;shape=mxgraph.flowchart.start_1;whiteSpace=wrap;" vertex="1" parent="WIyWlLk6GJQsqaUBKTNV-1">
          <mxGeometry x="434" y="690" width="100" height="60" as="geometry" />
        </mxCell>
        <mxCell id="fqKJSRwc9zWeb93R4SYT-29" style="edgeStyle=orthogonalEdgeStyle;rounded=0;orthogonalLoop=1;jettySize=auto;html=1;entryX=0;entryY=0.5;entryDx=0;entryDy=0;entryPerimeter=0;" edge="1" parent="WIyWlLk6GJQsqaUBKTNV-1" source="fqKJSRwc9zWeb93R4SYT-12" target="fqKJSRwc9zWeb93R4SYT-27">
          <mxGeometry relative="1" as="geometry">
            <Array as="points">
              <mxPoint x="280" y="720" />
            </Array>
          </mxGeometry>
        </mxCell>
        <mxCell id="fqKJSRwc9zWeb93R4SYT-31" style="edgeStyle=orthogonalEdgeStyle;rounded=0;orthogonalLoop=1;jettySize=auto;html=1;entryX=1;entryY=0.5;entryDx=0;entryDy=0;entryPerimeter=0;" edge="1" parent="WIyWlLk6GJQsqaUBKTNV-1" source="fqKJSRwc9zWeb93R4SYT-13" target="fqKJSRwc9zWeb93R4SYT-27">
          <mxGeometry relative="1" as="geometry">
            <Array as="points">
              <mxPoint x="720" y="720" />
            </Array>
          </mxGeometry>
        </mxCell>
        <mxCell id="fqKJSRwc9zWeb93R4SYT-33" style="edgeStyle=orthogonalEdgeStyle;rounded=0;orthogonalLoop=1;jettySize=auto;html=1;exitX=0.5;exitY=1;exitDx=0;exitDy=0;entryX=1;entryY=0.5;entryDx=0;entryDy=0;entryPerimeter=0;" edge="1" parent="WIyWlLk6GJQsqaUBKTNV-1" source="fqKJSRwc9zWeb93R4SYT-14" target="fqKJSRwc9zWeb93R4SYT-27">
          <mxGeometry relative="1" as="geometry" />
        </mxCell>
        <mxCell id="fqKJSRwc9zWeb93R4SYT-35" style="edgeStyle=orthogonalEdgeStyle;rounded=0;orthogonalLoop=1;jettySize=auto;html=1;" edge="1" parent="WIyWlLk6GJQsqaUBKTNV-1" source="fqKJSRwc9zWeb93R4SYT-34" target="fqKJSRwc9zWeb93R4SYT-6">
          <mxGeometry relative="1" as="geometry" />
        </mxCell>
        <mxCell id="fqKJSRwc9zWeb93R4SYT-34" value="Start" style="strokeWidth=2;html=1;shape=mxgraph.flowchart.start_1;whiteSpace=wrap;" vertex="1" parent="WIyWlLk6GJQsqaUBKTNV-1">
          <mxGeometry x="434" y="160" width="100" height="60" as="geometry" />
        </mxCell>
      </root>
    </mxGraphModel>
  </diagram>
</mxfile>
